<?xml version="1.0" encoding="UTF-8"?>
<!DOCTYPE svg
PUBLIC "-//W3C//DTD SVG 1.1//EN"
       "http://www.w3.org/Graphics/SVG/1.1/DTD/svg11.dtd">
<svg viewBox="115 -9 1261 772" width="1146px" height="781px" xmlns="http://www.w3.org/2000/svg" version="1.1">
   <line x1="901" y1="512" x2="891" y2="512" style="stroke:#bbb;stroke-width:1;"/>
   <line x1="659" y1="160" x2="649" y2="160" style="stroke:#bbb;stroke-width:1;"/>
   <line x1="891" y1="512" x2="659" y2="160" style="stroke:#bbb;stroke-width:1;"/>
   <line x1="893.5" y1="512" x2="897.03553390593" y2="515.53553390593" style="stroke:#bbb;stroke-width:2;"/>
   <line x1="893.5" y1="512" x2="897.03553390593" y2="508.46446609407" style="stroke:#bbb;stroke-width:2;"/>
   <line x1="654" y1="160" x2="657.53553390593" y2="163.53553390593" style="stroke:#bbb;stroke-width:2;"/>
   <line x1="654" y1="160" x2="657.53553390593" y2="156.46446609407" style="stroke:#bbb;stroke-width:2;"/>
   <line x1="1083" y1="159" x2="1073" y2="159" style="stroke:#c00;stroke-width:1;"/>
   <line x1="659" y1="160" x2="649" y2="160" style="stroke:#c00;stroke-width:1;"/>
   <line x1="1073" y1="159" x2="659" y2="160" style="stroke:#c00;stroke-width:1;"/>
   <line x1="1075.5" y1="159" x2="1079.0355339059" y2="162.53553390593" style="stroke:#c00;stroke-width:2;"/>
   <line x1="1075.5" y1="159" x2="1079.0355339059" y2="155.46446609407" style="stroke:#c00;stroke-width:2;"/>
   <line x1="654" y1="160" x2="657.53553390593" y2="163.53553390593" style="stroke:#c00;stroke-width:2;"/>
   <line x1="654" y1="160" x2="657.53553390593" y2="156.46446609407" style="stroke:#c00;stroke-width:2;"/>
   <line x1="1083" y1="299" x2="1073" y2="299" style="stroke:#333;stroke-width:1;"/>
   <line x1="997" y1="305" x2="987" y2="305" style="stroke:#333;stroke-width:1;"/>
   <line x1="1073" y1="299" x2="997" y2="305" style="stroke:#333;stroke-width:1;"/>
   <line x1="1075.5" y1="299" x2="1079.0355339059" y2="302.53553390593" style="stroke:#333;stroke-width:2;"/>
   <line x1="1075.5" y1="299" x2="1079.0355339059" y2="295.46446609407" style="stroke:#333;stroke-width:2;"/>
   <line x1="992" y1="305" x2="995.53553390593" y2="308.53553390593" style="stroke:#333;stroke-width:2;"/>
   <line x1="992" y1="305" x2="995.53553390593" y2="301.46446609407" style="stroke:#333;stroke-width:2;"/>
   <line x1="1127" y1="499" x2="1117" y2="499" style="stroke:#0bf;stroke-width:1;"/>
   <line x1="1030" y1="492" x2="1020" y2="492" style="stroke:#0bf;stroke-width:1;"/>
   <line x1="1117" y1="499" x2="1030" y2="492" style="stroke:#0bf;stroke-width:1;"/>
   <line x1="1119.5" y1="499" x2="1123.0355339059" y2="502.53553390593" style="stroke:#0bf;stroke-width:2;"/>
   <line x1="1119.5" y1="499" x2="1123.0355339059" y2="495.46446609407" style="stroke:#0bf;stroke-width:2;"/>
   <line x1="1025" y1="492" x2="1028.5355339059" y2="495.53553390593" style="stroke:#0bf;stroke-width:2;"/>
   <line x1="1025" y1="492" x2="1028.5355339059" y2="488.46446609407" style="stroke:#0bf;stroke-width:2;"/>
   <line x1="1127" y1="519" x2="1117" y2="519" style="stroke:#cb0;stroke-width:1;"/>
   <line x1="1030" y1="512" x2="1020" y2="512" style="stroke:#cb0;stroke-width:1;"/>
   <line x1="1117" y1="519" x2="1030" y2="512" style="stroke:#cb0;stroke-width:1;"/>
   <line x1="1119.5" y1="519" x2="1123.0355339059" y2="522.53553390593" style="stroke:#cb0;stroke-width:2;"/>
   <line x1="1119.5" y1="519" x2="1123.0355339059" y2="515.46446609407" style="stroke:#cb0;stroke-width:2;"/>
   <line x1="1025" y1="512" x2="1028.5355339059" y2="515.53553390593" style="stroke:#cb0;stroke-width:2;"/>
   <line x1="1025" y1="512" x2="1028.5355339059" y2="508.46446609407" style="stroke:#cb0;stroke-width:2;"/>
   <line x1="825" y1="627" x2="815" y2="627" style="stroke:#0b0;stroke-width:1;"/>
   <line x1="659" y1="160" x2="649" y2="160" style="stroke:#0b0;stroke-width:1;"/>
   <line x1="815" y1="627" x2="659" y2="160" style="stroke:#0b0;stroke-width:1;"/>
   <line x1="817.5" y1="627" x2="821.03553390593" y2="630.53553390593" style="stroke:#0b0;stroke-width:2;"/>
   <line x1="817.5" y1="627" x2="821.03553390593" y2="623.46446609407" style="stroke:#0b0;stroke-width:2;"/>
   <line x1="654" y1="160" x2="657.53553390593" y2="163.53553390593" style="stroke:#0b0;stroke-width:2;"/>
   <line x1="654" y1="160" x2="657.53553390593" y2="156.46446609407" style="stroke:#0b0;stroke-width:2;"/>
   <line x1="238" y1="206" x2="248" y2="206" style="stroke:#333;stroke-width:1;"/>
   <line x1="518" y1="160" x2="528" y2="160" style="stroke:#333;stroke-width:1;"/>
   <line x1="248" y1="206" x2="518" y2="160" style="stroke:#333;stroke-width:1;"/>
   <line x1="245.5" y1="206" x2="241.96446609407" y2="209.53553390593" style="stroke:#333;stroke-width:2;"/>
   <line x1="245.5" y1="206" x2="241.96446609407" y2="202.46446609407" style="stroke:#333;stroke-width:2;"/>
   <line x1="523" y1="160" x2="519.46446609407" y2="163.53553390593" style="stroke:#333;stroke-width:2;"/>
   <line x1="523" y1="160" x2="519.46446609407" y2="156.46446609407" style="stroke:#333;stroke-width:2;"/>
   <line x1="400" y1="45" x2="410" y2="45" style="stroke:#b0b;stroke-width:1;"/>
   <line x1="518" y1="160" x2="528" y2="160" style="stroke:#b0b;stroke-width:1;"/>
   <line x1="410" y1="45" x2="518" y2="160" style="stroke:#b0b;stroke-width:1;"/>
   <line x1="407.5" y1="45" x2="403.96446609407" y2="48.535533905933" style="stroke:#b0b;stroke-width:2;"/>
   <line x1="407.5" y1="45" x2="403.96446609407" y2="41.464466094067" style="stroke:#b0b;stroke-width:2;"/>
   <line x1="523" y1="160" x2="519.46446609407" y2="163.53553390593" style="stroke:#b0b;stroke-width:2;"/>
   <line x1="523" y1="160" x2="519.46446609407" y2="156.46446609407" style="stroke:#b0b;stroke-width:2;"/>
   <line x1="291" y1="621" x2="301" y2="621" style="stroke:#c00;stroke-width:1;"/>
   <line x1="518" y1="160" x2="528" y2="160" style="stroke:#c00;stroke-width:1;"/>
   <line x1="301" y1="621" x2="518" y2="160" style="stroke:#c00;stroke-width:1;"/>
   <line x1="298.5" y1="621" x2="294.96446609407" y2="624.53553390593" style="stroke:#c00;stroke-width:2;"/>
   <line x1="298.5" y1="621" x2="294.96446609407" y2="617.46446609407" style="stroke:#c00;stroke-width:2;"/>
   <line x1="523" y1="160" x2="519.46446609407" y2="163.53553390593" style="stroke:#c00;stroke-width:2;"/>
   <line x1="523" y1="160" x2="519.46446609407" y2="156.46446609407" style="stroke:#c00;stroke-width:2;"/>
   <line x1="1104" y1="397" x2="1094" y2="397" style="stroke:#c00;stroke-width:1;"/>
   <line x1="1073" y1="139" x2="1083" y2="139" style="stroke:#c00;stroke-width:1;"/>
   <line x1="1094" y1="397" x2="1073" y2="139" style="stroke:#c00;stroke-width:1;"/>
   <line x1="1096.5" y1="397" x2="1100.0355339059" y2="400.53553390593" style="stroke:#c00;stroke-width:2;"/>
   <line x1="1096.5" y1="397" x2="1100.0355339059" y2="393.46446609407" style="stroke:#c00;stroke-width:2;"/>
   <line x1="1078" y1="139" x2="1074.4644660941" y2="142.53553390593" style="stroke:#c00;stroke-width:2;"/>
   <line x1="1078" y1="139" x2="1074.4644660941" y2="135.46446609407" style="stroke:#c00;stroke-width:2;"/>
   <line x1="284" y1="115" x2="294" y2="115" style="stroke:#0bf;stroke-width:1;"/>
   <line x1="518" y1="160" x2="528" y2="160" style="stroke:#0bf;stroke-width:1;"/>
   <line x1="294" y1="115" x2="518" y2="160" style="stroke:#0bf;stroke-width:1;"/>
   <line x1="291.5" y1="115" x2="287.96446609407" y2="118.53553390593" style="stroke:#0bf;stroke-width:2;"/>
   <line x1="291.5" y1="115" x2="287.96446609407" y2="111.46446609407" style="stroke:#0bf;stroke-width:2;"/>
   <line x1="523" y1="160" x2="519.46446609407" y2="163.53553390593" style="stroke:#0bf;stroke-width:2;"/>
   <line x1="523" y1="160" x2="519.46446609407" y2="156.46446609407" style="stroke:#0bf;stroke-width:2;"/>
   <line x1="859" y1="285" x2="849" y2="285" style="stroke:#b0b;stroke-width:1;"/>
   <line x1="659" y1="160" x2="649" y2="160" style="stroke:#b0b;stroke-width:1;"/>
   <line x1="849" y1="285" x2="659" y2="160" style="stroke:#b0b;stroke-width:1;"/>
   <line x1="851.5" y1="285" x2="855.03553390593" y2="288.53553390593" style="stroke:#b0b;stroke-width:2;"/>
   <line x1="851.5" y1="285" x2="855.03553390593" y2="281.46446609407" style="stroke:#b0b;stroke-width:2;"/>
   <line x1="654" y1="160" x2="657.53553390593" y2="163.53553390593" style="stroke:#b0b;stroke-width:2;"/>
   <line x1="654" y1="160" x2="657.53553390593" y2="156.46446609407" style="stroke:#b0b;stroke-width:2;"/>
   <line x1="528" y1="180" x2="518" y2="180" style="stroke:#0bf;stroke-width:1;"/>
   <line x1="526" y1="36" x2="536" y2="36" style="stroke:#0bf;stroke-width:1;"/>
   <line x1="518" y1="180" x2="526" y2="36" style="stroke:#0bf;stroke-width:1;"/>
   <line x1="520.5" y1="180" x2="524.03553390593" y2="183.53553390593" style="stroke:#0bf;stroke-width:2;"/>
   <line x1="520.5" y1="180" x2="524.03553390593" y2="176.46446609407" style="stroke:#0bf;stroke-width:2;"/>
   <line x1="531" y1="36" x2="527.46446609407" y2="39.535533905933" style="stroke:#0bf;stroke-width:2;"/>
   <line x1="531" y1="36" x2="527.46446609407" y2="32.464466094067" style="stroke:#0bf;stroke-width:2;"/>
   <line x1="273" y1="470" x2="283" y2="470" style="stroke:#333;stroke-width:1;"/>
   <line x1="518" y1="160" x2="528" y2="160" style="stroke:#333;stroke-width:1;"/>
   <line x1="283" y1="470" x2="518" y2="160" style="stroke:#333;stroke-width:1;"/>
   <line x1="280.5" y1="470" x2="276.96446609407" y2="473.53553390593" style="stroke:#333;stroke-width:2;"/>
   <line x1="280.5" y1="470" x2="276.96446609407" y2="466.46446609407" style="stroke:#333;stroke-width:2;"/>
   <line x1="523" y1="160" x2="519.46446609407" y2="163.53553390593" style="stroke:#333;stroke-width:2;"/>
   <line x1="523" y1="160" x2="519.46446609407" y2="156.46446609407" style="stroke:#333;stroke-width:2;"/>
   <line x1="259" y1="296" x2="269" y2="296" style="stroke:#cb0;stroke-width:1;"/>
   <line x1="518" y1="160" x2="528" y2="160" style="stroke:#cb0;stroke-width:1;"/>
   <line x1="269" y1="296" x2="518" y2="160" style="stroke:#cb0;stroke-width:1;"/>
   <line x1="266.5" y1="296" x2="262.96446609407" y2="299.53553390593" style="stroke:#cb0;stroke-width:2;"/>
   <line x1="266.5" y1="296" x2="262.96446609407" y2="292.46446609407" style="stroke:#cb0;stroke-width:2;"/>
   <line x1="523" y1="160" x2="519.46446609407" y2="163.53553390593" style="stroke:#cb0;stroke-width:2;"/>
   <line x1="523" y1="160" x2="519.46446609407" y2="156.46446609407" style="stroke:#cb0;stroke-width:2;"/>
   <line x1="627" y1="570" x2="617" y2="570" style="stroke:#0bf;stroke-width:1;"/>
   <line x1="659" y1="160" x2="649" y2="160" style="stroke:#0bf;stroke-width:1;"/>
   <line x1="617" y1="570" x2="659" y2="160" style="stroke:#0bf;stroke-width:1;"/>
   <line x1="619.5" y1="570" x2="623.03553390593" y2="573.53553390593" style="stroke:#0bf;stroke-width:2;"/>
   <line x1="619.5" y1="570" x2="623.03553390593" y2="566.46446609407" style="stroke:#0bf;stroke-width:2;"/>
   <line x1="654" y1="160" x2="657.53553390593" y2="163.53553390593" style="stroke:#0bf;stroke-width:2;"/>
   <line x1="654" y1="160" x2="657.53553390593" y2="156.46446609407" style="stroke:#0bf;stroke-width:2;"/>
   <line x1="627" y1="570" x2="617" y2="570" style="stroke:#0b0;stroke-width:1;"/>
   <line x1="659" y1="160" x2="649" y2="160" style="stroke:#0b0;stroke-width:1;"/>
   <line x1="617" y1="570" x2="659" y2="160" style="stroke:#0b0;stroke-width:1;"/>
   <line x1="619.5" y1="570" x2="623.03553390593" y2="573.53553390593" style="stroke:#0b0;stroke-width:2;"/>
   <line x1="619.5" y1="570" x2="623.03553390593" y2="566.46446609407" style="stroke:#0b0;stroke-width:2;"/>
   <line x1="654" y1="160" x2="657.53553390593" y2="163.53553390593" style="stroke:#0b0;stroke-width:2;"/>
   <line x1="654" y1="160" x2="657.53553390593" y2="156.46446609407" style="stroke:#0b0;stroke-width:2;"/>
   <line x1="828" y1="58" x2="818" y2="58" style="stroke:#bbb;stroke-width:1;"/>
   <line x1="659" y1="160" x2="649" y2="160" style="stroke:#bbb;stroke-width:1;"/>
   <line x1="818" y1="58" x2="659" y2="160" style="stroke:#bbb;stroke-width:1;"/>
   <line x1="820.5" y1="58" x2="824.03553390593" y2="61.535533905933" style="stroke:#bbb;stroke-width:2;"/>
   <line x1="820.5" y1="58" x2="824.03553390593" y2="54.464466094067" style="stroke:#bbb;stroke-width:2;"/>
   <line x1="654" y1="160" x2="657.53553390593" y2="163.53553390593" style="stroke:#bbb;stroke-width:2;"/>
   <line x1="654" y1="160" x2="657.53553390593" y2="156.46446609407" style="stroke:#bbb;stroke-width:2;"/>
   <line x1="947" y1="78" x2="957" y2="78" style="stroke:#c00;stroke-width:1;"/>
   <line x1="1073" y1="139" x2="1083" y2="139" style="stroke:#c00;stroke-width:1;"/>
   <line x1="957" y1="78" x2="1073" y2="139" style="stroke:#c00;stroke-width:1;"/>
   <line x1="954.5" y1="78" x2="950.96446609407" y2="81.535533905933" style="stroke:#c00;stroke-width:2;"/>
   <line x1="954.5" y1="78" x2="950.96446609407" y2="74.464466094067" style="stroke:#c00;stroke-width:2;"/>
   <line x1="1078" y1="139" x2="1074.4644660941" y2="142.53553390593" style="stroke:#c00;stroke-width:2;"/>
   <line x1="1078" y1="139" x2="1074.4644660941" y2="135.46446609407" style="stroke:#c00;stroke-width:2;"/>
   <line x1="947" y1="98" x2="957" y2="98" style="stroke:#0bf;stroke-width:1;"/>
   <line x1="1073" y1="139" x2="1083" y2="139" style="stroke:#0bf;stroke-width:1;"/>
   <line x1="957" y1="98" x2="1073" y2="139" style="stroke:#0bf;stroke-width:1;"/>
   <line x1="954.5" y1="98" x2="950.96446609407" y2="101.53553390593" style="stroke:#0bf;stroke-width:2;"/>
   <line x1="954.5" y1="98" x2="950.96446609407" y2="94.464466094067" style="stroke:#0bf;stroke-width:2;"/>
   <line x1="1078" y1="139" x2="1074.4644660941" y2="142.53553390593" style="stroke:#0bf;stroke-width:2;"/>
   <line x1="1078" y1="139" x2="1074.4644660941" y2="135.46446609407" style="stroke:#0bf;stroke-width:2;"/>
   <line x1="564" y1="559" x2="574" y2="559" style="stroke:#0b0;stroke-width:1;"/>
   <line x1="518" y1="160" x2="528" y2="160" style="stroke:#0b0;stroke-width:1;"/>
   <line x1="574" y1="559" x2="518" y2="160" style="stroke:#0b0;stroke-width:1;"/>
   <line x1="571.5" y1="559" x2="567.96446609407" y2="562.53553390593" style="stroke:#0b0;stroke-width:2;"/>
   <line x1="571.5" y1="559" x2="567.96446609407" y2="555.46446609407" style="stroke:#0b0;stroke-width:2;"/>
   <line x1="523" y1="160" x2="519.46446609407" y2="163.53553390593" style="stroke:#0b0;stroke-width:2;"/>
   <line x1="523" y1="160" x2="519.46446609407" y2="156.46446609407" style="stroke:#0b0;stroke-width:2;"/>
   <rect width="71" height="20" x="536" y="6" style="fill:#007;stroke:black;"/>
   <text width="71" height="20" x="541" y="20" style="fill:#fff;" font-family="Arial" font-size="16px"> Account</text>
   <rect width="71" height="20" x="536" y="26" style="fill:#aea;stroke:black;"/>
   <text width="71" height="20" x="541" y="40" style="fill:black;" font-family="Arial" font-size="16px">acc_id</text>
   <rect width="71" height="20" x="536" y="46" style="fill:none;stroke:black;"/>
   <text width="71" height="20" x="541" y="60" style="fill:black;" font-family="Arial" font-size="16px">acc_mail</text>
   <rect width="71" height="20" x="536" y="66" style="fill:none;stroke:black;"/>
   <text width="71" height="20" x="541" y="80" style="fill:black;" font-family="Arial" font-size="16px">acc_mdp</text>
   <rect width="119" height="20" x="901" y="462" style="fill:#007;stroke:black;"/>
   <text width="119" height="20" x="906" y="476" style="fill:#fff;" font-family="Arial" font-size="16px"> Budget</text>
   <rect width="119" height="20" x="901" y="482" style="fill:#aea;stroke:black;"/>
   <text width="119" height="20" x="906" y="496" style="fill:black;" font-family="Arial" font-size="16px">bud_id</text>
   <rect width="119" height="20" x="901" y="502" style="fill:#aea;stroke:black;"/>
   <text width="119" height="20" x="906" y="516" style="fill:black;" font-family="Arial" font-size="16px">bud_idM</text>
   <rect width="119" height="20" x="901" y="522" style="fill:none;stroke:black;"/>
   <text width="119" height="20" x="906" y="536" style="fill:black;" font-family="Arial" font-size="16px">bud_description</text>
   <rect width="119" height="20" x="901" y="542" style="fill:none;stroke:black;"/>
   <text width="119" height="20" x="906" y="556" style="fill:black;" font-family="Arial" font-size="16px">bud_valeur</text>
   <rect width="102" height="20" x="1083" y="109" style="fill:#007;stroke:black;"/>
   <text width="102" height="20" x="1088" y="123" style="fill:#fff;" font-family="Arial" font-size="16px"> Contact</text>
   <rect width="102" height="20" x="1083" y="129" style="fill:#aea;stroke:black;"/>
   <text width="102" height="20" x="1088" y="143" style="fill:black;" font-family="Arial" font-size="16px">cont_id</text>
   <rect width="102" height="20" x="1083" y="149" style="fill:none;stroke:black;"/>
   <text width="102" height="20" x="1088" y="163" style="fill:black;" font-family="Arial" font-size="16px">cont_idM</text>
   <rect width="102" height="20" x="1083" y="169" style="fill:none;stroke:black;"/>
   <text width="102" height="20" x="1088" y="183" style="fill:black;" font-family="Arial" font-size="16px">cont_nom</text>
   <rect width="102" height="20" x="1083" y="189" style="fill:none;stroke:black;"/>
   <text width="102" height="20" x="1088" y="203" style="fill:black;" font-family="Arial" font-size="16px">cont_prenom</text>
   <rect width="102" height="20" x="1083" y="209" style="fill:none;stroke:black;"/>
   <text width="102" height="20" x="1088" y="223" style="fill:black;" font-family="Arial" font-size="16px">cont_adresse</text>
   <rect width="102" height="20" x="1083" y="229" style="fill:none;stroke:black;"/>
   <text width="102" height="20" x="1088" y="243" style="fill:black;" font-family="Arial" font-size="16px">cont_mail</text>
   <rect width="102" height="20" x="1083" y="249" style="fill:none;stroke:black;"/>
   <text width="102" height="20" x="1088" y="263" style="fill:black;" font-family="Arial" font-size="16px">cont_age</text>
   <rect width="102" height="20" x="1083" y="269" style="fill:none;stroke:black;"/>
   <text width="102" height="20" x="1088" y="283" style="fill:black;" font-family="Arial" font-size="16px">cont_tel</text>
   <rect width="102" height="20" x="1083" y="289" style="fill:none;stroke:black;"/>
   <text width="102" height="20" x="1088" y="303" style="fill:black;" font-family="Arial" font-size="16px">cont_idT</text>
   <rect width="119" height="20" x="1127" y="449" style="fill:#007;stroke:black;"/>
   <text width="119" height="20" x="1132" y="463" style="fill:#fff;" font-family="Arial" font-size="16px"> Depense</text>
   <rect width="119" height="20" x="1127" y="469" style="fill:#aea;stroke:black;"/>
   <text width="119" height="20" x="1132" y="483" style="fill:black;" font-family="Arial" font-size="16px">dep_id</text>
   <rect width="119" height="20" x="1127" y="489" style="fill:#aea;stroke:black;"/>
   <text width="119" height="20" x="1132" y="503" style="fill:black;" font-family="Arial" font-size="16px">dep_idbudget</text>
   <rect width="119" height="20" x="1127" y="509" style="fill:#aea;stroke:black;"/>
   <text width="119" height="20" x="1132" y="523" style="fill:black;" font-family="Arial" font-size="16px">dep_idM</text>
   <rect width="119" height="20" x="1127" y="529" style="fill:none;stroke:black;"/>
   <text width="119" height="20" x="1132" y="543" style="fill:black;" font-family="Arial" font-size="16px">dep_description</text>
   <rect width="119" height="20" x="1127" y="549" style="fill:none;stroke:black;"/>
   <text width="119" height="20" x="1132" y="563" style="fill:black;" font-family="Arial" font-size="16px">dep_valeur</text>
   <rect width="120" height="20" x="825" y="577" style="fill:#007;stroke:black;"/>
   <text width="120" height="20" x="830" y="591" style="fill:#fff;" font-family="Arial" font-size="16px"> Fournisseurs</text>
   <rect width="120" height="20" x="825" y="597" style="fill:#aea;stroke:black;"/>
   <text width="120" height="20" x="830" y="611" style="fill:black;" font-family="Arial" font-size="16px">four_id</text>
   <rect width="120" height="20" x="825" y="617" style="fill:none;stroke:black;"/>
   <text width="120" height="20" x="830" y="631" style="fill:black;" font-family="Arial" font-size="16px">four_idM</text>
   <rect width="120" height="20" x="825" y="637" style="fill:none;stroke:black;"/>
   <text width="120" height="20" x="830" y="651" style="fill:black;" font-family="Arial" font-size="16px">four_titre</text>
   <rect width="120" height="20" x="825" y="657" style="fill:none;stroke:black;"/>
   <text width="120" height="20" x="830" y="671" style="fill:black;" font-family="Arial" font-size="16px">four_adresse</text>
   <rect width="120" height="20" x="825" y="677" style="fill:none;stroke:black;"/>
   <text width="120" height="20" x="830" y="691" style="fill:black;" font-family="Arial" font-size="16px">four_tel</text>
   <rect width="120" height="20" x="825" y="697" style="fill:none;stroke:black;"/>
   <text width="120" height="20" x="830" y="711" style="fill:black;" font-family="Arial" font-size="16px">four_mail</text>
   <rect width="120" height="20" x="825" y="717" style="fill:none;stroke:black;"/>
   <text width="120" height="20" x="830" y="731" style="fill:black;" font-family="Arial" font-size="16px">four_site</text>
   <rect width="120" height="20" x="825" y="737" style="fill:none;stroke:black;"/>
   <text width="120" height="20" x="830" y="751" style="fill:black;" font-family="Arial" font-size="16px">four_description</text>
   <rect width="97" height="20" x="141" y="176" style="fill:#007;stroke:black;"/>
   <text width="97" height="20" x="146" y="190" style="fill:#fff;" font-family="Arial" font-size="16px"> Hashid</text>
   <rect width="97" height="20" x="141" y="196" style="fill:#aea;stroke:black;"/>
   <text width="97" height="20" x="146" y="210" style="fill:black;" font-family="Arial" font-size="16px">hashid_idM</text>
   <rect width="97" height="20" x="141" y="216" style="fill:none;stroke:black;"/>
   <text width="97" height="20" x="146" y="230" style="fill:black;" font-family="Arial" font-size="16px">hashid_hash</text>
   <rect width="73" height="20" x="327" y="15" style="fill:#007;stroke:black;"/>
   <text width="73" height="20" x="332" y="29" style="fill:#fff;" font-family="Arial" font-size="16px"> Invitation</text>
   <rect width="73" height="20" x="327" y="35" style="fill:#aea;stroke:black;"/>
   <text width="73" height="20" x="332" y="49" style="fill:black;" font-family="Arial" font-size="16px">inv_idM</text>
   <rect width="73" height="20" x="327" y="55" style="fill:none;stroke:black;"/>
   <text width="73" height="20" x="332" y="69" style="fill:black;" font-family="Arial" font-size="16px">inv_invite</text>
   <rect width="100" height="20" x="191" y="571" style="fill:#007;stroke:black;"/>
   <text width="100" height="20" x="196" y="585" style="fill:#fff;" font-family="Arial" font-size="16px"> Lien</text>
   <rect width="100" height="20" x="191" y="591" style="fill:#aea;stroke:black;"/>
   <text width="100" height="20" x="196" y="605" style="fill:black;" font-family="Arial" font-size="16px">link_id</text>
   <rect width="100" height="20" x="191" y="611" style="fill:none;stroke:black;"/>
   <text width="100" height="20" x="196" y="625" style="fill:black;" font-family="Arial" font-size="16px">link_idM</text>
   <rect width="100" height="20" x="191" y="631" style="fill:none;stroke:black;"/>
   <text width="100" height="20" x="196" y="645" style="fill:black;" font-family="Arial" font-size="16px">link_date</text>
   <rect width="100" height="20" x="191" y="651" style="fill:none;stroke:black;"/>
   <text width="100" height="20" x="196" y="665" style="fill:black;" font-family="Arial" font-size="16px">link_adress</text>
   <rect width="100" height="20" x="191" y="671" style="fill:none;stroke:black;"/>
   <text width="100" height="20" x="196" y="685" style="fill:black;" font-family="Arial" font-size="16px">link_descr</text>
   <rect width="100" height="20" x="191" y="691" style="fill:none;stroke:black;"/>
   <text width="100" height="20" x="196" y="705" style="fill:black;" font-family="Arial" font-size="16px">link_isInsprtn</text>
   <rect width="133" height="20" x="1104" y="347" style="fill:#007;stroke:black;"/>
   <text width="133" height="20" x="1109" y="361" style="fill:#fff;" font-family="Arial" font-size="16px"> ListeContact</text>
   <rect width="133" height="20" x="1104" y="367" style="fill:#aea;stroke:black;"/>
   <text width="133" height="20" x="1109" y="381" style="fill:black;" font-family="Arial" font-size="16px">listCont_id</text>
   <rect width="133" height="20" x="1104" y="387" style="fill:#aea;stroke:black;"/>
   <text width="133" height="20" x="1109" y="401" style="fill:black;" font-family="Arial" font-size="16px">listCont_idcontact</text>
   <rect width="154" height="20" x="130" y="85" style="fill:#007;stroke:black;"/>
   <text width="154" height="20" x="135" y="99" style="fill:#fff;" font-family="Arial" font-size="16px"> ListeSouhaits</text>
   <rect width="154" height="20" x="130" y="105" style="fill:#aea;stroke:black;"/>
   <text width="154" height="20" x="135" y="119" style="fill:black;" font-family="Arial" font-size="16px">ListSouh_idM</text>
   <rect width="154" height="20" x="130" y="125" style="fill:#aea;stroke:black;"/>
   <text width="154" height="20" x="135" y="139" style="fill:black;" font-family="Arial" font-size="16px">ListSouh_nom</text>
   <rect width="154" height="20" x="130" y="145" style="fill:none;stroke:black;"/>
   <text width="154" height="20" x="135" y="159" style="fill:black;" font-family="Arial" font-size="16px">ListSouh_preference</text>
   <rect width="128" height="20" x="859" y="255" style="fill:#007;stroke:black;"/>
   <text width="128" height="20" x="864" y="269" style="fill:#fff;" font-family="Arial" font-size="16px"> ListeTables</text>
   <rect width="128" height="20" x="859" y="275" style="fill:none;stroke:black;"/>
   <text width="128" height="20" x="864" y="289" style="fill:black;" font-family="Arial" font-size="16px">listTab_idM</text>
   <rect width="128" height="20" x="859" y="295" style="fill:#aea;stroke:black;"/>
   <text width="128" height="20" x="864" y="309" style="fill:black;" font-family="Arial" font-size="16px">listTab_id</text>
   <rect width="128" height="20" x="859" y="315" style="fill:none;stroke:black;"/>
   <text width="128" height="20" x="864" y="329" style="fill:black;" font-family="Arial" font-size="16px">listTab_nom</text>
   <rect width="128" height="20" x="859" y="335" style="fill:none;stroke:black;"/>
   <text width="128" height="20" x="864" y="349" style="fill:black;" font-family="Arial" font-size="16px">listTab_nbPlaces</text>
   <rect width="121" height="20" x="528" y="130" style="fill:#007;stroke:black;"/>
   <text width="121" height="20" x="533" y="144" style="fill:#fff;" font-family="Arial" font-size="16px"> Mariage</text>
   <rect width="121" height="20" x="528" y="150" style="fill:#aea;stroke:black;"/>
   <text width="121" height="20" x="533" y="164" style="fill:black;" font-family="Arial" font-size="16px">maria_id</text>
   <rect width="121" height="20" x="528" y="170" style="fill:none;stroke:black;"/>
   <text width="121" height="20" x="533" y="184" style="fill:black;" font-family="Arial" font-size="16px">maria_idAcc</text>
   <rect width="121" height="20" x="528" y="190" style="fill:none;stroke:black;"/>
   <text width="121" height="20" x="533" y="204" style="fill:black;" font-family="Arial" font-size="16px">maria_date</text>
   <rect width="121" height="20" x="528" y="210" style="fill:none;stroke:black;"/>
   <text width="121" height="20" x="533" y="224" style="fill:black;" font-family="Arial" font-size="16px">maria_lieu</text>
   <rect width="121" height="20" x="528" y="230" style="fill:none;stroke:black;"/>
   <text width="121" height="20" x="533" y="244" style="fill:black;" font-family="Arial" font-size="16px">maria_nomF</text>
   <rect width="121" height="20" x="528" y="250" style="fill:none;stroke:black;"/>
   <text width="121" height="20" x="533" y="264" style="fill:black;" font-family="Arial" font-size="16px">maria_prenomF</text>
   <rect width="121" height="20" x="528" y="270" style="fill:none;stroke:black;"/>
   <text width="121" height="20" x="533" y="284" style="fill:black;" font-family="Arial" font-size="16px">maria_nomH</text>
   <rect width="121" height="20" x="528" y="290" style="fill:none;stroke:black;"/>
   <text width="121" height="20" x="533" y="304" style="fill:black;" font-family="Arial" font-size="16px">maria_prenomH</text>
   <rect width="121" height="20" x="528" y="310" style="fill:none;stroke:black;"/>
   <text width="121" height="20" x="533" y="324" style="fill:black;" font-family="Arial" font-size="16px">maria_desc</text>
   <rect width="107" height="20" x="166" y="420" style="fill:#007;stroke:black;"/>
   <text width="107" height="20" x="171" y="434" style="fill:#fff;" font-family="Arial" font-size="16px"> Note</text>
   <rect width="107" height="20" x="166" y="440" style="fill:#aea;stroke:black;"/>
   <text width="107" height="20" x="171" y="454" style="fill:black;" font-family="Arial" font-size="16px">note_id</text>
   <rect width="107" height="20" x="166" y="460" style="fill:none;stroke:black;"/>
   <text width="107" height="20" x="171" y="474" style="fill:black;" font-family="Arial" font-size="16px">note_idM</text>
   <rect width="107" height="20" x="166" y="480" style="fill:none;stroke:black;"/>
   <text width="107" height="20" x="171" y="494" style="fill:black;" font-family="Arial" font-size="16px">note_date</text>
   <rect width="107" height="20" x="166" y="500" style="fill:none;stroke:black;"/>
   <text width="107" height="20" x="171" y="514" style="fill:black;" font-family="Arial" font-size="16px">note_title</text>
   <rect width="107" height="20" x="166" y="520" style="fill:none;stroke:black;"/>
   <text width="107" height="20" x="171" y="534" style="fill:black;" font-family="Arial" font-size="16px">note_text</text>
   <rect width="107" height="20" x="166" y="540" style="fill:none;stroke:black;"/>
   <text width="107" height="20" x="171" y="554" style="fill:black;" font-family="Arial" font-size="16px">note_isInsprtn</text>
   <rect width="100" height="20" x="159" y="246" style="fill:#007;stroke:black;"/>
   <text width="100" height="20" x="164" y="260" style="fill:#fff;" font-family="Arial" font-size="16px"> Photo</text>
   <rect width="100" height="20" x="159" y="266" style="fill:#aea;stroke:black;"/>
   <text width="100" height="20" x="164" y="280" style="fill:black;" font-family="Arial" font-size="16px">pict_id</text>
   <rect width="100" height="20" x="159" y="286" style="fill:none;stroke:black;"/>
   <text width="100" height="20" x="164" y="300" style="fill:black;" font-family="Arial" font-size="16px">pict_idM</text>
   <rect width="100" height="20" x="159" y="306" style="fill:none;stroke:black;"/>
   <text width="100" height="20" x="164" y="320" style="fill:black;" font-family="Arial" font-size="16px">pict_date</text>
   <rect width="100" height="20" x="159" y="326" style="fill:none;stroke:black;"/>
   <text width="100" height="20" x="164" y="340" style="fill:black;" font-family="Arial" font-size="16px">pict_title</text>
   <rect width="100" height="20" x="159" y="346" style="fill:none;stroke:black;"/>
   <text width="100" height="20" x="164" y="360" style="fill:black;" font-family="Arial" font-size="16px">pict_format</text>
   <rect width="100" height="20" x="159" y="366" style="fill:none;stroke:black;"/>
   <text width="100" height="20" x="164" y="380" style="fill:black;" font-family="Arial" font-size="16px">pict_descr</text>
   <rect width="100" height="20" x="159" y="386" style="fill:none;stroke:black;"/>
   <text width="100" height="20" x="164" y="400" style="fill:black;" font-family="Arial" font-size="16px">pict_isInsprtn</text>
   <rect width="123" height="20" x="627" y="520" style="fill:#007;stroke:black;"/>
   <text width="123" height="20" x="632" y="534" style="fill:#fff;" font-family="Arial" font-size="16px"> Planning</text>
   <rect width="123" height="20" x="627" y="540" style="fill:#aea;stroke:black;"/>
   <text width="123" height="20" x="632" y="554" style="fill:black;" font-family="Arial" font-size="16px">plan_id</text>
   <rect width="123" height="20" x="627" y="560" style="fill:#aea;stroke:black;"/>
   <text width="123" height="20" x="632" y="574" style="fill:black;" font-family="Arial" font-size="16px">plan_idM</text>
   <rect width="123" height="20" x="627" y="580" style="fill:none;stroke:black;"/>
   <text width="123" height="20" x="632" y="594" style="fill:black;" font-family="Arial" font-size="16px">plan_description</text>
   <rect width="123" height="20" x="627" y="600" style="fill:none;stroke:black;"/>
   <text width="123" height="20" x="632" y="614" style="fill:black;" font-family="Arial" font-size="16px">plan_start</text>
   <rect width="123" height="20" x="627" y="620" style="fill:none;stroke:black;"/>
   <text width="123" height="20" x="632" y="634" style="fill:black;" font-family="Arial" font-size="16px">plan_end</text>
   <rect width="119" height="20" x="828" y="28" style="fill:#007;stroke:black;"/>
   <text width="119" height="20" x="833" y="42" style="fill:#fff;" font-family="Arial" font-size="16px"> Preferences</text>
   <rect width="119" height="20" x="828" y="48" style="fill:#aea;stroke:black;"/>
   <text width="119" height="20" x="833" y="62" style="fill:black;" font-family="Arial" font-size="16px">pref_idM</text>
   <rect width="119" height="20" x="828" y="68" style="fill:#aea;stroke:black;"/>
   <text width="119" height="20" x="833" y="82" style="fill:black;" font-family="Arial" font-size="16px">pref_idContact</text>
   <rect width="119" height="20" x="828" y="88" style="fill:#aea;stroke:black;"/>
   <text width="119" height="20" x="833" y="102" style="fill:black;" font-family="Arial" font-size="16px">pref_idContact2</text>
   <rect width="119" height="20" x="828" y="108" style="fill:none;stroke:black;"/>
   <text width="119" height="20" x="833" y="122" style="fill:black;" font-family="Arial" font-size="16px">pref_aime</text>
   <rect width="115" height="20" x="449" y="509" style="fill:#007;stroke:black;"/>
   <text width="115" height="20" x="454" y="523" style="fill:#fff;" font-family="Arial" font-size="16px"> Questions</text>
   <rect width="115" height="20" x="449" y="529" style="fill:#aea;stroke:black;"/>
   <text width="115" height="20" x="454" y="543" style="fill:black;" font-family="Arial" font-size="16px">quest_id</text>
   <rect width="115" height="20" x="449" y="549" style="fill:none;stroke:black;"/>
   <text width="115" height="20" x="454" y="563" style="fill:black;" font-family="Arial" font-size="16px">quest_idm</text>
   <rect width="115" height="20" x="449" y="569" style="fill:none;stroke:black;"/>
   <text width="115" height="20" x="454" y="583" style="fill:black;" font-family="Arial" font-size="16px">quest_nom</text>
   <rect width="115" height="20" x="449" y="589" style="fill:none;stroke:black;"/>
   <text width="115" height="20" x="454" y="603" style="fill:black;" font-family="Arial" font-size="16px">quest_question</text>
   <rect width="115" height="20" x="449" y="609" style="fill:none;stroke:black;"/>
   <text width="115" height="20" x="454" y="623" style="fill:black;" font-family="Arial" font-size="16px">quest_date</text>
</svg>
